# xmcd
#
# Track frame offsets: 
#        3000
#        15840
#        32571
#        49316
#        71210
#        88193
#        104692
#        124230
#        141367
#        162347
#        179711
#        196606
#        211886
#        226958
#        244761
#        266735
#        288632
#        305232
#        317619
#        338022
#
# Disc length: 4721 seconds
#
# Revision: 0
# Processed by: cddbd v1.5.2PL0 Copyright (c) Steve Scherf et al.
# Submitted via: ExactAudioCopyFreeDBPlugin 1.0
#
DISCID=32124914
DTITLE=Various Artist - Hit Country - Hits Of The Decade - 2001 - 201
DTITLE=0 - CD 2
DYEAR=2010
DGENRE=Country
TTITLE0=Steve Forde - Summer's Little Angel
TTITLE1=Kellie Pickler - Best Days Of Your Life
TTITLE2=Adam Brand - Blame It On Eve
TTITLE3=Jamey Johnson - In Colour
TTITLE4=Catherine Britt - What I Did Last Night
TTITLE5=Doc Walker - Beautiful Life
TTITLE6=Dierks Bentley - What Was I Thinkin'
TTITLE7=Blake Shelton - Austin
TTITLE8=Sugarland - Stay
TTITLE9=Taylor Swift - Tim McGraw
TTITLE10=The Wilkinsons - Fast Car
TTITLE11=George Strait - I Saw God Today
TTITLE12=Big and Rich - Save A Horse, Ride A Cowboy
TTITLE13=Phil Vassar - Love Is A Beautiful Thing
TTITLE14=Lee Ann Womack - I Hope You Dance
TTITLE15=McAlister Kemp - All Kinds Of Tough
TTITLE16=The Sunny Cowgirls - Acting Stupid
TTITLE17=Paul Kelly and The Stormwater Boys - Song For The Old Rake
TTITLE18=Little Big Town - Boondocks
TTITLE19=Shea Fisher - Don't Chase Me
EXTD=
EXTT0=
EXTT1=
EXTT2=
EXTT3=
EXTT4=
EXTT5=
EXTT6=
EXTT7=
EXTT8=
EXTT9=
EXTT10=
EXTT11=
EXTT12=
EXTT13=
EXTT14=
EXTT15=
EXTT16=
EXTT17=
EXTT18=
EXTT19=
PLAYORDER=
